<?xml version="1.0" encoding="utf-8"?>
<!-- Generator: Adobe Illustrator 26.4.1, SVG Export Plug-In . SVG Version: 6.00 Build 0)  -->
<svg version="1.1" id="Layer_1" xmlns="http://www.w3.org/2000/svg" xmlns:xlink="http://www.w3.org/1999/xlink" x="0px" y="0px"
	 viewBox="0 0 100.1 56.4" style="enable-background:new 0 0 100.1 56.4;" xml:space="preserve">
<style type="text/css">
	.st0{fill:#22372B;}
	.st1{fill:#658E3D;}
	
		.st2{clip-path:url(#SVGID_00000063617393949972041480000017293652332876528259_);fill:url(#SVGID_00000140698731245884568210000003584008894143568819_);}
</style>
<path class="st0" d="M66.5,0C33.5,9.6,21.9,23.2,18,29.5c-0.8,1.1-1.3,2.3-1.7,3.5c-1.2-2.5-3.7-6.1-5.3-8c-3.8,1-8.4,3.6-11.1,6.4
	C12,39.9,19,56,19,56c1.2-3.5,2.4-6.7,3.8-9.8c4.4,1.2,9.7-0.5,13.4-4.6c4.7-5.3,4.8-12.7,0.2-16.5c-0.3-0.3-0.7-0.5-1-0.7
	C49,6.1,63.8,0.8,66.5,0"/>
<path class="st0" d="M45.3,35.3c0.4,3,0.5,3.7,0.7,5.8c0.3-1.6,0.3-1.9,0.6-3.1c0.3-1.3,0.3-1.5,0.6-2.7h2.1L47,44.6h-2.2l-0.3-2.7
	c-0.2-1.5-0.2-1.7-0.3-3.1L43,44.6h-2.1l2.2-9.3H45.3z"/>
<polygon class="st0" points="50.6,35.3 55.2,35.3 54.9,36.9 52.5,36.9 52,39 54.3,39 53.9,40.6 51.6,40.6 51.1,43 53.7,43 
	53.3,44.6 48.4,44.6 "/>
<path class="st0" d="M56.4,35.3h2.7c1.3,0,2.9,0,2.9,1.5c0,0.5-0.2,1.4-0.3,1.7c-0.3,0.7-0.6,1-1.6,1.2c0.4,0.1,1.1,0.3,1.1,1.2
	c0,0.4-0.4,2.2-0.6,2.7c-0.4,0.8-1.1,1.1-2.3,1.1h-4L56.4,35.3z M57.5,40.6L56.9,43h1c0.7,0,0.8-0.3,0.9-0.9l0.2-0.8
	c0-0.1,0-0.2,0-0.3c0-0.3-0.3-0.4-0.6-0.4H57.5z M58.3,37l-0.5,2h0.8c0.5,0,0.9-0.1,1-0.7l0.1-0.6c0-0.1,0-0.2,0-0.2
	c0-0.5-0.4-0.5-0.8-0.5H58.3z"/>
<path class="st0" d="M63.7,35.3h2.7c1.3,0,2.7,0,2.7,1.5c0,0.5-0.2,1.5-0.4,1.9c-0.4,0.8-1,1-1.7,1.1c0.4,0.1,1.2,0.2,1.2,1.1
	c0,0.2,0,0.4-0.1,0.7L67.9,43c0,0.2-0.2,0.9-0.2,1c0,0.4,0.3,0.5,0.4,0.6v0.1l-2-0.1c-0.4,0-0.7-0.2-0.7-0.6c0-0.1,0-0.2,0.1-0.6
	l0.3-1.7c0.1-0.3,0.1-0.4,0.1-0.6c0-0.5-0.4-0.5-0.7-0.5h-0.6l-0.9,3.9h-2.3L63.7,35.3z M65.1,39h0.6c0.5,0,0.8,0,1-0.5
	c0.1-0.3,0.3-1.1,0.3-1.2c0-0.4-0.3-0.4-0.4-0.4c-0.1,0-0.2,0-0.9,0L65.1,39z"/>
<path class="st0" d="M72,35.3h3.6L75,44.6h-2.2l0.2-2.1h-1.7l-0.8,2.1H68L72,35.3z M73.6,36.1l-1.7,4.8h1.3L73.6,36.1z"/>
<path class="st0" d="M78.2,41.4c-0.1,0.4-0.3,1-0.3,1.2c0,0.6,0.6,0.6,0.7,0.6c0.3,0,0.5-0.1,0.7-0.3c0.2-0.2,0.3-0.9,0.3-1.1
	c0-0.3-0.1-0.5-0.5-0.8c-0.2-0.1-0.3-0.2-0.9-0.7c-1-0.8-1.4-1-1.4-1.9c0-0.7,0.4-2,0.8-2.5c0.2-0.3,0.6-0.8,2.3-0.8
	c1.7,0,2.8,0.4,2.8,1.7c0,0.4-0.1,0.8-0.2,1.4h-2.1c0.1-0.3,0.2-0.8,0.2-1c0-0.4-0.4-0.5-0.6-0.5c-0.4,0-0.6,0.2-0.6,0.3
	c-0.2,0.3-0.3,0.8-0.3,1c0,0.4,0.1,0.5,0.9,1.1c1.7,1.3,1.9,1.6,1.9,2.3c0,0.2,0,0.4-0.1,0.6c-0.3,1.8-1,2.7-3.3,2.7
	c-1.2,0-2.9-0.2-2.9-1.8c0-0.5,0.1-1,0.3-1.5H78.2z"/>
<polygon class="st0" points="88.5,35.3 90.9,35.3 87.9,39.6 89,44.6 86.7,44.6 85.8,39.6 84.7,44.6 82.4,44.6 84.6,35.3 86.8,35.3 
	85.9,39.4 "/>
<path class="st0" d="M93,35.3h3.6l-0.7,9.3h-2.2l0.2-2.1h-1.7l-0.8,2.1H89L93,35.3z M94.5,36.1l-1.7,4.8H94L94.5,36.1z"/>
<path class="st0" d="M4.6,24.1c0-1.2,0-2.3,0-3.5c0-1.9,0-3.9,0-6.4H18h7.1h7.5c0.8-0.5,1.6-1.1,2.4-1.6l-32.1,0l0,0.8
	c0,2.8,0,5.1,0,7.2c0,1.2,0,2.3,0,3.5c0,1.2,0,2.4,0,3.6c0,0.1,0,0.2,0,0.3c0.5-0.3,1-0.7,1.6-1C4.6,26.1,4.6,25.1,4.6,24.1"/>
<path class="st0" d="M97.4,56.4l-1-1.3c-0.3-0.4-0.7-0.5-0.9-0.5c0,0,0,0,0,0c0-0.1,0-0.3,0-0.4c0-0.1,0-0.3,0-0.4
	c-0.1-0.7-0.4-1.4-0.8-1.9c-0.3-0.5-0.7-0.7-1-0.8c-0.1-0.1-0.3-0.1-0.4-0.2c-0.2-0.1-0.2-0.3-0.4-0.7c0-0.1-0.1-0.1-0.1-0.2
	c-0.4-1-0.8-2.1-1.1-3.2l-1.6,0c0.3,1.2,0.8,2.7,1.3,3.8c0,0.1,0,0.1,0.1,0.2c0.2,0.4,0.4,0.9,0.9,1.3c0.2,0.1,0.4,0.2,0.5,0.3
	c0.3,0.2,0.4,0.2,0.6,0.4c0.2,0.3,0.4,0.7,0.5,1.2c0,0.1,0,0.2,0,0.3c0,0.2,0,0.4,0.1,0.6H25.7c0-0.9,0-1.8,0-2.7c0-1.2,0-2.3,0-3.5
	c0-0.5,0-1,0-1.4c0,0-0.1,0-0.1,0h0c-0.5,0-1,0-1.4-0.1c0,0.5,0,1,0,1.5c0,1.2,0,2.3,0,3.5c0,1.2,0,2.3,0,3.5v0.8H97.4z"/>
<path class="st0" d="M46.1,14.3h9.1c1.6,0,3.2,0,4.9,0c0.6,0,1.2,0,1.8,0l0,0l0.2,0.2l1.3,0.8l0.3,0.1h0l0.2,0.2l0.4,0.4
	c1.8,1.7,4,1.1,5.9,0.6c0.8-0.2,1.7-0.4,2.4-0.5c0.7,0,1.5-0.1,2.1,0.1c0.3,0.1,0.5,0.3,0.8,0.5c0.2,0.1,0.5,0.3,0.7,0.4
	c0.5,0.3,1.1,0.4,1.6,0.6c0.4,0.1,0.8,0.2,1.2,0.4c0.6,0.3,1,0.8,1.5,1.3c0.5,0.6,0.9,1.1,1.7,1.5c0.5,0.3,0.9,0.3,1.1,0.4
	c0.1,0,0.2,0,0.2,0c0,0,0.1,0.1,0.1,0.3c0,0.1,0,0.3-0.1,0.4c-0.1,0.3-0.2,0.7-0.1,1.1c0.1,0.6,0.4,1.1,0.7,1.6
	c0.1,0.2,0.2,0.4,0.3,0.5c0.7,1.5,1.3,3,1.7,4.5c0,0,0,0.1,0.1,0.3c0.2,0.7,0.6,2.3,1,3.2l1.6,0c-0.3-0.9-0.9-3-1.1-3.6
	c0-0.2-0.1-0.3-0.1-0.3c-0.5-1.6-1.1-3.1-1.8-4.7c-0.1-0.2-0.2-0.4-0.4-0.7c-0.2-0.4-0.4-0.7-0.5-1c0-0.1,0-0.4,0.1-0.5
	c0.1-0.4,0.2-0.8,0-1.2c-0.4-1.2-0.9-1.4-1.5-1.5c-0.2,0-0.4-0.1-0.7-0.2c-0.5-0.3-0.8-0.7-1.2-1.2c-0.5-0.6-1.1-1.3-2-1.8
	c-0.5-0.2-0.9-0.3-1.4-0.5c-0.5-0.1-1-0.3-1.4-0.5c-0.2-0.1-0.4-0.2-0.6-0.4c-0.3-0.2-0.7-0.4-1.1-0.6c-0.9-0.4-2-0.3-2.8-0.3
	c-0.9,0.1-1.9,0.3-2.7,0.5c-2,0.5-3.3,0.8-4.4-0.2l-0.5-0.4l-0.6-0.4l-0.3-0.1l0,0l-0.9-0.6l-0.2-0.3l-0.3-0.3h-0.3
	c-0.7,0-1.5,0-2.2,0c-1.6,0-3.3,0-4.9,0h-8.3c-0.6,0.5-1.1,1-1.7,1.6C45.5,14.3,45.8,14.3,46.1,14.3"/>
<path class="st0" d="M4.6,41c0-1.7,0-3.3,0-4.8c-0.5-0.5-1-1-1.6-1.5c0,0,0,0.1,0,0.1c0,2.2,0,4.5,0,7l0,0.8h7.1
	c-0.4-0.5-0.8-1.1-1.2-1.6H4.6z"/>
<path class="st1" d="M33.9,23.7c0,0-4.3-2.4-10.5,0.9c0,0,11.2-12.8,32.1-20.1C55.5,4.6,43.2,11,33.9,23.7"/>
<path class="st1" d="M19.1,44.4c-2.6-2.2-3.7-5.5-3.3-8.9c-0.7-2.7-3.3-6.8-5-8.8c-3.1,0.8-5.7,2.2-8.6,4.6
	c10,7,16.6,20.6,16.6,20.6l2.6-6.3C20.5,45.4,19.8,44.9,19.1,44.4"/>
<g>
	<defs>
		<path id="SVGID_1_" d="M20.9,28.1c-4.1,4.6-4.2,11.1-0.1,14.4c4,3.3,10.6,2.2,14.8-2.4c4.1-4.6,4.2-11.1,0.1-14.4
			c-1.6-1.3-3.5-1.9-5.6-1.9C26.8,23.8,23.4,25.3,20.9,28.1"/>
	</defs>
	<clipPath id="SVGID_00000048476435050477906450000007577274414286514583_">
		<use xlink:href="#SVGID_1_"  style="overflow:visible;"/>
	</clipPath>
	
		<radialGradient id="SVGID_00000058571894134648253490000015915387453341490092_" cx="167.1572" cy="714.5437" r="1.112" gradientTransform="matrix(-13.6506 15.3723 15.3723 13.6506 -8665.0918 -12299.7646)" gradientUnits="userSpaceOnUse">
		<stop  offset="0" style="stop-color:#FFFFFF"/>
		<stop  offset="0.6012" style="stop-color:#F0C419"/>
		<stop  offset="1" style="stop-color:#CA8B2A"/>
	</radialGradient>
	
		<polygon style="clip-path:url(#SVGID_00000048476435050477906450000007577274414286514583_);fill:url(#SVGID_00000058571894134648253490000015915387453341490092_);" points="
		50.6,33.5 29.5,57.2 5.8,36.1 26.8,12.4 	"/>
</g>
<path class="st0" d="M23.3,38.6c0-0.3,0-0.6,0.1-0.9c0.1-0.3,0.1-0.6,0.2-0.9c0.1-0.3,0.2-0.6,0.3-0.8c0.1-0.3,0.2-0.5,0.3-0.8
	c0.2-0.5,0.5-1.1,0.7-1.6c0.3-0.5,0.6-1,0.9-1.5c0.3-0.5,0.6-1,1-1.5c0.2-0.2,0.3-0.5,0.5-0.7l0.3-0.3c0.1-0.1,0.2-0.2,0.3-0.4
	c0.2-0.2,0.4-0.5,0.7-0.7c0.3-0.2,0.6-0.4,1-0.5c0.2-0.1,0.4-0.1,0.7-0.1c0.2,0,0.5,0.1,0.7,0.2c0.4,0.3,0.6,0.6,0.8,1l-0.1-0.1
	c0.1,0.1,0.1,0.1,0.1,0.1c0,0,0,0.1,0,0.1c0,0.1,0,0.1,0,0.1c0,0.1,0,0.2,0,0.2c0,0.1,0,0.3,0,0.4c0,0.2-0.1,0.5-0.2,0.7
	c-0.1,0.2-0.2,0.4-0.3,0.6c-0.1,0.2-0.2,0.3-0.3,0.5c-0.2,0.3-0.5,0.6-0.7,0.9L29.9,33l-0.3,0.4c-0.4,0.6-0.9,1.1-1.3,1.7L27.7,36
	l-0.3,0.4c-0.1,0.1-0.2,0.3-0.3,0.4c0.1-0.4,0.2-0.7,0.3-1c0.1-0.3,0.3-0.7,0.4-1c0.3-0.7,0.6-1.3,1-1.9l0.3-0.5l0.1-0.2l0.1-0.1
	l0-0.1l0.1-0.1c0.2-0.3,0.4-0.6,0.5-0.9c0.1-0.1,0.1-0.3,0.2-0.4c0.1-0.1,0.1-0.3,0.2-0.4c0-0.1,0.1-0.3,0.1-0.4c0-0.1,0-0.1,0-0.1
	c0,0,0,0,0,0s0,0,0,0l0,0c0,0,0,0,0,0.1l-0.1-0.1c-0.1-0.2-0.2-0.3-0.3-0.4c-0.1,0-0.1,0-0.3,0c-0.2,0-0.3,0.2-0.5,0.3
	c-0.2,0.1-0.4,0.3-0.5,0.5c-0.1,0.1-0.2,0.2-0.3,0.3l-0.3,0.3c-0.2,0.2-0.3,0.4-0.5,0.7c-0.3,0.4-0.7,0.9-1,1.3
	c-0.7,0.9-1.3,1.8-1.9,2.8c-0.3,0.5-0.6,1-0.8,1.5c-0.1,0.3-0.3,0.5-0.4,0.8C23.5,38.1,23.4,38.3,23.3,38.6"/>
<path class="st0" d="M98.7,35.3v0.2h-0.4v1h-0.2v-1h-0.4v-0.2H98.7z M99.9,36.4l0-0.7c0-0.1,0-0.2,0-0.3h0c0,0.1-0.1,0.2-0.1,0.3
	l-0.2,0.6h-0.2l-0.2-0.7c0-0.1-0.1-0.2-0.1-0.3h0c0,0.1,0,0.2,0,0.3l0,0.7h-0.2l0.1-1.2h0.3l0.2,0.6c0,0.1,0,0.2,0.1,0.3h0
	c0-0.1,0.1-0.2,0.1-0.3l0.2-0.6h0.3l0.1,1.2H99.9z"/>
<g>
	<path class="st0" d="M31.8,50.5c-0.1,0.2-0.2,0.6-0.2,0.7c0,0.4,0.3,0.4,0.4,0.4c0.2,0,0.3,0,0.4-0.2c0.1-0.1,0.2-0.5,0.2-0.7
		c0-0.2-0.1-0.3-0.3-0.5c-0.1-0.1-0.2-0.1-0.5-0.4c-0.6-0.5-0.8-0.6-0.8-1.2c0-0.4,0.3-1.2,0.5-1.5c0.1-0.2,0.4-0.5,1.4-0.5
		c1,0,1.7,0.3,1.7,1.1c0,0.2-0.1,0.5-0.1,0.8h-1.3c0-0.2,0.1-0.5,0.1-0.6c0-0.3-0.2-0.3-0.4-0.3c-0.3,0-0.4,0.1-0.4,0.2
		c-0.1,0.2-0.2,0.5-0.2,0.6c0,0.3,0.1,0.3,0.6,0.7c1,0.8,1.2,1,1.2,1.4c0,0.1,0,0.2,0,0.3c-0.2,1.1-0.6,1.7-2,1.7
		c-0.7,0-1.8-0.1-1.8-1.1c0-0.3,0.1-0.6,0.2-0.9H31.8z"/>
	<path class="st0" d="M35.6,48.4c0.2-0.9,0.4-1.7,2-1.7c0.3,0,0.9,0,1.3,0.3c0.4,0.3,0.4,0.7,0.4,0.9c0,0.4-0.1,0.9-0.2,1.3L38.7,51
		c-0.3,1.1-0.7,1.5-2,1.5c-0.8,0-1.7-0.2-1.7-1.3c0-0.2,0.1-0.5,0.1-0.7L35.6,48.4z M36.4,51.2c0,0.2,0.2,0.3,0.4,0.3
		c0.4,0,0.5-0.3,0.6-0.8c0.1-0.3,0.4-1.8,0.5-2.1C38,48.2,38,48.1,38,48c0-0.2-0.1-0.4-0.4-0.4c-0.4,0-0.4,0.2-0.5,0.3
		C37,48.4,36.4,51,36.4,51.2"/>
	<polygon class="st0" points="42.7,46.7 44.2,46.7 41.8,50.6 41.4,52.4 40,52.4 40.5,50.5 40,46.7 41.3,46.7 41.5,49.1 	"/>
	<path class="st0" d="M44.8,46.7h1.6c0.8,0,1.7,0,1.7,0.9c0,0.3-0.1,0.8-0.2,1c-0.2,0.5-0.4,0.6-1,0.7c0.3,0.1,0.7,0.2,0.7,0.7
		c0,0.3-0.2,1.3-0.4,1.7c-0.2,0.5-0.7,0.6-1.4,0.6h-2.4L44.8,46.7z M45.4,50l-0.3,1.5h0.6c0.4,0,0.5-0.2,0.5-0.5l0.1-0.5
		c0,0,0-0.1,0-0.2c0-0.2-0.2-0.3-0.4-0.3H45.4z M45.9,47.8L45.6,49h0.5c0.3,0,0.5-0.1,0.6-0.4l0.1-0.4c0,0,0-0.1,0-0.1
		c0-0.3-0.2-0.3-0.5-0.3H45.9z"/>
	<polygon class="st0" points="49.5,46.7 52.3,46.7 52.1,47.7 50.6,47.7 50.3,49 51.7,49 51.5,50 50.1,50 49.8,51.4 51.4,51.4 
		51.2,52.4 48.2,52.4 	"/>
	<path class="st0" d="M54,46.7h2.2l-0.4,5.7h-1.4l0.1-1.3h-1.1l-0.5,1.3h-1.5L54,46.7z M55,47.3l-1,2.9h0.8L55,47.3z"/>
	<path class="st0" d="M59.1,46.7c0.2,1.9,0.3,2.3,0.4,3.5c0.2-1,0.2-1.2,0.3-1.9c0.2-0.8,0.2-0.9,0.3-1.6h1.3l-1.3,5.7h-1.3
		l-0.2-1.6c-0.1-0.9-0.1-1-0.2-1.9l-0.7,3.5h-1.3l1.3-5.7H59.1z"/>
	<path class="st0" d="M64.3,46.7h1.6c0.8,0,1.7,0,1.7,0.9c0,0.3-0.1,0.8-0.2,1c-0.2,0.5-0.4,0.6-1,0.7c0.3,0.1,0.7,0.2,0.7,0.7
		c0,0.3-0.2,1.3-0.4,1.7c-0.2,0.5-0.7,0.6-1.4,0.6H63L64.3,46.7z M64.9,50l-0.3,1.5h0.6c0.4,0,0.5-0.2,0.5-0.5l0.1-0.5
		c0,0,0-0.1,0-0.2c0-0.2-0.2-0.3-0.4-0.3H64.9z M65.4,47.8L65.1,49h0.5c0.3,0,0.5-0.1,0.6-0.4l0.1-0.4c0,0,0-0.1,0-0.1
		c0-0.3-0.2-0.3-0.5-0.3H65.4z"/>
	<path class="st0" d="M68.6,48.4c0.2-0.9,0.4-1.7,2-1.7c0.3,0,0.9,0,1.3,0.3c0.4,0.3,0.4,0.7,0.4,0.9c0,0.4-0.1,0.9-0.2,1.3L71.7,51
		c-0.3,1.1-0.7,1.5-2,1.5c-0.8,0-1.7-0.2-1.7-1.3c0-0.2,0.1-0.5,0.1-0.7L68.6,48.4z M69.3,51.2c0,0.2,0.2,0.3,0.4,0.3
		c0.4,0,0.5-0.3,0.6-0.8c0.1-0.3,0.4-1.8,0.5-2.1C71,48.2,71,48.1,71,48c0-0.2-0.1-0.4-0.4-0.4c-0.4,0-0.4,0.2-0.5,0.3
		C70,48.4,69.3,51,69.3,51.2"/>
	<path class="st0" d="M74.4,46.7h2.2l-0.4,5.7h-1.4l0.1-1.3h-1.1l-0.5,1.3h-1.5L74.4,46.7z M75.3,47.3l-1,2.9h0.8L75.3,47.3z"/>
	<path class="st0" d="M78.1,46.7h1.7c0.8,0,1.7,0,1.7,0.9c0,0.3-0.1,0.9-0.3,1.2c-0.2,0.5-0.6,0.6-1,0.7c0.2,0,0.8,0.1,0.8,0.7
		c0,0.1,0,0.2-0.1,0.4l-0.2,0.9c0,0.1-0.1,0.5-0.1,0.6c0,0.3,0.2,0.3,0.3,0.3v0l-1.2,0c-0.2,0-0.4-0.1-0.4-0.4c0,0,0-0.1,0.1-0.4
		l0.2-1c0-0.2,0.1-0.3,0.1-0.3c0-0.3-0.2-0.3-0.4-0.3h-0.4l-0.6,2.4h-1.4L78.1,46.7z M78.9,49h0.4c0.3,0,0.5,0,0.6-0.3
		c0.1-0.2,0.2-0.7,0.2-0.8c0-0.2-0.2-0.2-0.3-0.2c-0.1,0-0.1,0-0.6,0L78.9,49z"/>
	<path class="st0" d="M82.8,46.7h1.6c1,0,1.8,0,1.8,1c0,0.1,0,0.3-0.1,0.5L85.5,51c-0.2,1-0.5,1.4-1.6,1.4h-2.4L82.8,46.7z M84,47.7
		l-0.9,3.8c0.5,0,0.5,0,0.6,0c0.1,0,0.3,0,0.5-0.5l0.6-2.8c0,0,0-0.1,0-0.1c0-0.3-0.2-0.3-0.4-0.3H84z"/>
</g>
</svg>
